 http://www.imdb.com/title/tt0373926/

Source: The.Interpreter.2005.720p.BluRay.x264-EbP Thanks!

Subs: Brazilian, Czech, Danish, Dutch, English, Finnish, German, Hungarian, Norwegian, Polish, Portuguese, Servian, Slovenian, Spanish.

Sample and Screens included.

General
Complete name                            : The Interpreter-720p MP4 AAC x264 BRRip 2005-CC.mp4
Format                                   : MPEG-4
Format profile                           : Base Media
Codec ID                                 : isom
File size                                : 3.19 GiB
Duration                                 : 2h 8mn
Overall bit rate mode                    : Variable
Overall bit rate                         : 3 561 Kbps
Encoded date                             : UTC 2012-11-05 15:10:19

Video
ID                                       : 1
Format                                   : AVC
Format/Info                              : Advanced Video Codec
Format profile                           : High@L4.1
Format settings, CABAC                   : Yes
Format settings, ReFrames                : 5 frames
Codec ID                                 : avc1
Codec ID/Info                            : Advanced Video Coding
Duration                                 : 2h 8mn
Bit rate                                 : 3 218 Kbps
Maximum bit rate                         : 27.0 Mbps
Width                                    : 1 280 pixels
Height                                   : 544 pixels
Display aspect ratio                     : 2.35:1
Frame rate mode                          : Variable
Frame rate                               : 23.976 fps
Minimum frame rate                       : 19.048 fps
Maximum frame rate                       : 24.390 fps
Color space                              : YUV
Chroma subsampling                       : 4:2:0
Bit depth                                : 8 bits
Scan type                                : Progressive
Bits/(Pixel*Frame)                       : 0.193
Stream size                              : 2.84 GiB (89%)
Writing library                          : x264 core 112

Audio
ID                                       : 2
Format                                   : AAC
Format/Info                              : Advanced Audio Codec
Format profile                           : LC
Codec ID                                 : 40
Duration                                 : 2h 8mn
Bit rate mode                            : Variable
Bit rate                                 : 384 Kbps
Maximum bit rate                         : 601 Kbps
Channel(s)                               : 6 channels
Channel positions                        : Front: L C R, Side: L R, LFE
Sampling rate                            : 48.0 KHz
Compression mode                         : Lossy
Delay relative to video                  : 83ms
Stream size                              : 352 MiB (11%)
Language                                 : English

Enjoy...

Requested by majmi.

Coming soon: The Horse Whisperer, Apollo 13, Evita, Heat, Jay and Silent Bob...